<svg width="162" height="36" viewBox="0 0 162 36" fill="none" xmlns="http://www.w3.org/2000/svg">
<path d="M11.2734 29.5859L18.0703 0.875H21.8672L22.7344 5.65625L15.4922 35H11.4141L11.2734 29.5859ZM7.78125 0.875L13.4062 29.5859L12.9375 35H8.39062L0.820312 0.875H7.78125ZM28.7109 29.4688L34.2656 0.875H41.2266L33.6797 35H29.1328L28.7109 29.4688ZM24 0.875L30.8438 29.7031L30.6562 35H26.5781L19.2891 5.63281L20.2266 0.875H24ZM52.5234 0.875V35H45.5156V0.875H52.5234ZM66.5859 0.875V35H59.5781V0.875H66.5859ZM87.7266 0.875V35H80.7188V0.875H87.7266ZM98.2266 0.875V6.38281H70.3828V0.875H98.2266ZM121.359 23.6797H128.367C128.227 25.9766 127.594 28.0156 126.469 29.7969C125.359 31.5781 123.805 32.9688 121.805 33.9688C119.82 34.9688 117.43 35.4688 114.633 35.4688C112.445 35.4688 110.484 35.0938 108.75 34.3438C107.016 33.5781 105.531 32.4844 104.297 31.0625C103.078 29.6406 102.148 27.9219 101.508 25.9062C100.867 23.8906 100.547 21.6328 100.547 19.1328V16.7656C100.547 14.2656 100.875 12.0078 101.531 9.99219C102.203 7.96094 103.156 6.23438 104.391 4.8125C105.641 3.39062 107.133 2.29688 108.867 1.53125C110.602 0.765625 112.539 0.382812 114.68 0.382812C117.523 0.382812 119.922 0.898438 121.875 1.92969C123.844 2.96094 125.367 4.38281 126.445 6.19531C127.539 8.00781 128.195 10.0703 128.414 12.3828H121.383C121.305 11.0078 121.031 9.84375 120.562 8.89062C120.094 7.92188 119.383 7.19531 118.43 6.71094C117.492 6.21094 116.242 5.96094 114.68 5.96094C113.508 5.96094 112.484 6.17969 111.609 6.61719C110.734 7.05469 110 7.71875 109.406 8.60938C108.812 9.5 108.367 10.625 108.07 11.9844C107.789 13.3281 107.648 14.9062 107.648 16.7188V19.1328C107.648 20.8984 107.781 22.4531 108.047 23.7969C108.312 25.125 108.719 26.25 109.266 27.1719C109.828 28.0781 110.547 28.7656 111.422 29.2344C112.312 29.6875 113.383 29.9141 114.633 29.9141C116.102 29.9141 117.312 29.6797 118.266 29.2109C119.219 28.7422 119.945 28.0469 120.445 27.125C120.961 26.2031 121.266 25.0547 121.359 23.6797ZM161.016 17.1406V18.7578C161.016 21.3516 160.664 23.6797 159.961 25.7422C159.258 27.8047 158.266 29.5625 156.984 31.0156C155.703 32.4531 154.172 33.5547 152.391 34.3203C150.625 35.0859 148.664 35.4688 146.508 35.4688C144.367 35.4688 142.406 35.0859 140.625 34.3203C138.859 33.5547 137.328 32.4531 136.031 31.0156C134.734 29.5625 133.727 27.8047 133.008 25.7422C132.305 23.6797 131.953 21.3516 131.953 18.7578V17.1406C131.953 14.5312 132.305 12.2031 133.008 10.1562C133.711 8.09375 134.703 6.33594 135.984 4.88281C137.281 3.42969 138.812 2.32031 140.578 1.55469C142.359 0.789062 144.32 0.40625 146.461 0.40625C148.617 0.40625 150.578 0.789062 152.344 1.55469C154.125 2.32031 155.656 3.42969 156.938 4.88281C158.234 6.33594 159.234 8.09375 159.938 10.1562C160.656 12.2031 161.016 14.5312 161.016 17.1406ZM153.914 18.7578V17.0938C153.914 15.2812 153.75 13.6875 153.422 12.3125C153.094 10.9375 152.609 9.78125 151.969 8.84375C151.328 7.90625 150.547 7.20312 149.625 6.73438C148.703 6.25 147.648 6.00781 146.461 6.00781C145.273 6.00781 144.219 6.25 143.297 6.73438C142.391 7.20312 141.617 7.90625 140.977 8.84375C140.352 9.78125 139.875 10.9375 139.547 12.3125C139.219 13.6875 139.055 15.2812 139.055 17.0938V18.7578C139.055 20.5547 139.219 22.1484 139.547 23.5391C139.875 24.9141 140.359 26.0781 141 27.0312C141.641 27.9688 142.422 28.6797 143.344 29.1641C144.266 29.6484 145.32 29.8906 146.508 29.8906C147.695 29.8906 148.75 29.6484 149.672 29.1641C150.594 28.6797 151.367 27.9688 151.992 27.0312C152.617 26.0781 153.094 24.9141 153.422 23.5391C153.75 22.1484 153.914 20.5547 153.914 18.7578Z" fill="black"/>
</svg>
