<?xml version="1.0" encoding="utf-8"?>
<!-- Generator: Adobe Illustrator 21.1.0, SVG Export Plug-In . SVG Version: 6.00 Build 0)  -->
<svg version="1.1" id="Layer_1" xmlns="http://www.w3.org/2000/svg" xmlns:xlink="http://www.w3.org/1999/xlink" x="0px" y="0px"
	 viewBox="0 0 500 500" style="enable-background:new 0 0 500 500;" xml:space="preserve">
<style type="text/css">
	.st0{fill:#FFFFFF;}
	.st1{fill:#231F20;}
	.st2{display:none;opacity:0.36;}
</style>
<g id="Layer_2">
	<rect class="st0" width="500" height="500"/>
	<rect x="6.9" y="8.2" width="485.6" height="486.1"/>
	<rect x="29.8" y="29.8" class="st0" width="439.6" height="344.8"/>
</g>
<g id="Layer_3">
	<g>
		<polygon class="st0" points="29.4,473 29.4,398.2 118.5,398.2 118.5,415.7 65.2,415.7 65.2,426.3 110.3,426.3 110.3,443.9 
			65.2,443.9 65.2,455.6 120.5,455.6 120.5,473 		"/>
		<path class="st0" d="M196.2,419.9c-0.6-2.4-2.6-4.2-5.2-5.1c-2.6-0.9-5.7-1.3-9.2-1.3c-7.8,0-11.3,1.5-11.3,4.3
			c0,11.1,62.9,4.2,62.9,31.4c0,17.3-21.1,25.6-51.2,25.6c-28.9,0-47.7-11.5-48.4-25.1H168c0.7,2.7,2.9,4.6,6,5.9
			c2.9,1.3,6.6,1.9,10.2,1.9c8.9,0,14.9-1.9,14.9-5.5c0-11.4-62.9-3.6-62.9-32c0-15.8,19.9-23.7,47.4-23.7
			c30.2,0,44.2,10.6,46.8,23.6h-34l0,0L196.2,419.9L196.2,419.9z"/>
		<path class="st0" d="M286.9,430.6H301c11.1,0,17-1.9,17-7.1s-6-7.8-14.4-7.8h-16.7V430.6z M286.9,447v26h-35.8v-74.7h51.7
			c36.5,0,48.4,6.8,48.4,21.3c0,8.7-5.5,15.8-18.3,18.2c11.5,2.8,18.5,4.6,18.5,19.6c0,9.8,0.1,15.4,0.1,15.4l-33.9-0.1
			c-0.4-14.1-0.2-6.4-0.6-13c-0.5-9.8-2.5-13-19-13h-11v0.3L286.9,447L286.9,447z"/>
		<path class="st0" d="M409,415.7v12.5h14.9c7.1,0,12.3-2.3,12.3-6.6c0-5.9-7.1-6-14.6-6H409L409,415.7L409,415.7z M409,441.9v13.8
			h15.7c8.9,0,15.5-1.3,15.5-6.8c0-6.6-8.3-7-19.8-7H409L409,441.9z M373.2,473v-74.7h52.3c24.6,0,44.3,4,44.3,18.9
			c0,7.8-7.4,13.4-14.3,16.2c11.8,2,18.2,9.1,18.2,17.2c0,16.6-18.6,22.4-47.1,22.4H373.2z"/>
	</g>
</g>
<g>
	<path class="st0" d="M-252.7,8.2h-0.6h-38.5h-0.6v0.6v58.3v0.6h0.6h38.5h0.6v-0.6V8.8V8.2L-252.7,8.2z"/>
</g>
<polyline class="st1" points="-253.3,8.8 -253.3,67.1 -291.8,67.1 -291.8,8.8 -253.3,8.8 "/>
<rect x="-289.9" y="10.9" class="st0" width="34.4" height="9.7"/>
<rect x="-289.9" y="22.7" class="st0" width="34.4" height="35.5"/>
<g>
	<polygon class="st0" points="-289.9,65 -289.9,60.3 -283,60.3 -283,61.4 -287.1,61.4 -287.1,62.1 -283.6,62.1 -283.6,63.2 
		-287.1,63.2 -287.1,63.9 -282.8,63.9 -282.8,65 	"/>
	<path class="st0" d="M-276.9,61.6c0-0.2-0.2-0.3-0.4-0.3c-0.2-0.1-0.4-0.1-0.7-0.1c-0.6,0-0.9,0.1-0.9,0.3c0,0.7,4.9,0.3,4.9,2
		c0,1.1-1.6,1.6-4,1.6c-2.2,0-3.7-0.7-3.8-1.6h2.7c0.1,0.2,0.2,0.3,0.5,0.4c0.2,0.1,0.5,0.1,0.8,0.1c0.7,0,1.2-0.1,1.2-0.3
		c0-0.7-4.9-0.2-4.9-2c0-1,1.6-1.5,3.7-1.5c2.3,0,3.4,0.7,3.6,1.5H-276.9z"/>
	<path class="st0" d="M-269.9,62.3h1.1c0.9,0,1.3-0.1,1.3-0.4c0-0.3-0.5-0.5-1.1-0.5h-1.3V62.3z M-269.9,63.3V65h-2.8v-4.7h4
		c2.8,0,3.7,0.4,3.7,1.3c0,0.5-0.4,1-1.4,1.2c0.9,0.2,1.4,0.3,1.4,1.2c0,0.6,0,0.8,0.3,0.8V65h-2.8c-0.1-0.1-0.1-0.4-0.1-0.8
		c0-0.6-0.2-0.8-1.5-0.8H-269.9z"/>
	<path class="st0" d="M-260.5,61.4v0.8h1.2c0.6,0,1-0.1,1-0.4c0-0.4-0.5-0.4-1.1-0.4H-260.5z M-260.5,63v0.9h1.2
		c0.7,0,1.2-0.1,1.2-0.4c0-0.4-0.6-0.4-1.5-0.4H-260.5z M-263.2,65v-4.7h4c1.9,0,3.4,0.3,3.4,1.2c0,0.5-0.6,0.8-1.1,1
		c0.9,0.1,1.4,0.6,1.4,1.1c0,1.1-1.4,1.4-3.6,1.4H-263.2z"/>
</g>
<g>
	<g>
		<path d="M136.7,210.9c0.9,8.5,2.3,17.1,4.5,25.9c1.8,7.3,4,14.3,6.4,21l32.4-9.4C174.2,223,159.9,206,136.7,210.9"/>
	</g>
	<g>
		<path d="M424.5,188.7l-86.1,25.1c3.4,28.2-5.2,52.9-34.1,61.3c-45.6,13.4-63.1-21.6-72.9-61.3c-13.5-54.7-1.4-88.1,30.1-97.3
			c28.1-8.1,50.1,3.5,60,32.2l85-24.8c-25.1-70.6-82.4-99.8-165.9-75.5c-62.3,18.1-104.2,71.1-105.4,139.7
			c38.3-7.4,63.1,16.5,73.5,58.1l3.6,14.8l-56.6,16.4c8.1,16.6,18.3,30.6,30.2,41.7c3.3-6.5,4.4-14.7,3.2-25.5l27.5-8
			c2.5,19.6-1.9,35.8-11.4,48.2c31.5,19.2,71.8,23.4,117.5,10C395,322.9,434.7,264.1,424.5,188.7"/>
	</g>
	<g>
		<path d="M163.7,335.6c-26.7,7.8-43.6-17.9-48.5-46.2l40.6-11.9c-3.1-6.2-5.9-12.8-8.4-19.7l-37.4,10.9
			c-6.3-25.9,1.4-50.6,23.1-56.9c1.2-0.4,2.4-0.6,3.5-0.8c-0.8-7.7-1.4-15.4-1.3-22.7c-1.8,0.3-3.7,0.7-5.6,1.2
			C86.1,202.2,75.3,246.8,86.7,293c11.5,46.5,37.9,77.3,82.1,64.4c15.6-4.5,28.1-12.6,36.6-23.5c-6.8-4.2-13.3-9.1-19.2-14.6
			C182.2,327.2,174.9,332.3,163.7,335.6"/>
	</g>
</g>
<g>
	<path class="st1" d="M-288.9,18.5V13h1.7v0.8h-1v1.3h1V16h-1v1.6h1.1v0.8H-288.9z"/>
	<path class="st1" d="M-287,18.5l0.8-5.5h0.8l0.8,5.5h-0.7l-0.2-1.2h-0.9l-0.2,1.2H-287z M-285.8,14L-285.8,14l-0.3,2.4h0.6
		L-285.8,14z"/>
	<path class="st1" d="M-283.6,18.5h-0.6V13h1.2c0.2,0,0.4,0.1,0.5,0.4c0.1,0.2,0.2,0.6,0.2,1.1c0,0.3,0,0.6-0.1,0.9
		s-0.2,0.4-0.4,0.5v0c0,0,0.1,0,0.1,0c0.1,0,0.1,0.1,0.2,0.1c0.1,0.1,0.1,0.2,0.2,0.3c0,0.1,0.1,0.3,0.1,0.6c0,0.1,0,0.2,0,0.4
		c0,0.2,0,0.3,0,0.5c0,0.2,0,0.3,0,0.5c0,0.1,0,0.2,0,0.3h-0.6c0-0.2-0.1-0.3-0.1-0.5c0-0.2,0-0.4,0-0.5c0-0.2,0-0.3,0-0.5
		c0-0.1,0-0.3,0-0.4c0-0.1-0.1-0.2-0.1-0.3c-0.1-0.1-0.2-0.1-0.3-0.1h-0.2V18.5z M-283.6,15.4h0.3c0.1,0,0.1,0,0.2-0.1
		c0,0,0.1-0.1,0.1-0.2c0-0.1,0-0.2,0.1-0.3c0-0.1,0-0.2,0-0.3c0-0.3,0-0.4-0.1-0.6c-0.1-0.1-0.1-0.2-0.2-0.2h-0.3V15.4z"/>
	<path class="st1" d="M-281.8,18.5V13h0.6v4.6h1v0.9H-281.8z"/>
	<path class="st1" d="M-279.7,16.6l-0.8-3.6h0.7l0.5,2.3l0.5-2.3h0.7l-0.9,3.6v1.9h-0.6V16.6z"/>
	<path class="st1" d="M-275.9,18.6c-0.3,0-0.5-0.1-0.6-0.2c-0.1-0.2-0.2-0.4-0.3-0.6c-0.1-0.3-0.1-0.6-0.1-0.9c0-0.3,0-0.7,0-1
		c0-0.4,0-0.7,0-1.1c0-0.3,0-0.6,0.1-0.9c0.1-0.3,0.2-0.5,0.3-0.6c0.1-0.2,0.3-0.2,0.6-0.2c0.3,0,0.6,0.2,0.7,0.5
		c0.1,0.3,0.2,0.8,0.2,1.4h-0.6c0-0.4,0-0.6-0.1-0.8c0-0.2-0.1-0.2-0.2-0.2c-0.1,0-0.2,0-0.2,0.1c-0.1,0.1-0.1,0.2-0.1,0.4
		c0,0.2,0,0.4-0.1,0.6c0,0.3,0,0.6,0,0.9c0,0.3,0,0.7,0,0.9c0,0.3,0,0.5,0.1,0.6c0,0.2,0.1,0.3,0.1,0.4c0.1,0.1,0.1,0.1,0.2,0.1
		c0.1,0,0.1,0,0.2-0.1c0-0.1,0.1-0.2,0.1-0.3c0-0.1,0-0.2,0-0.4c0-0.1,0-0.2,0-0.4h0.6c0,0.4,0,0.7-0.1,0.9c0,0.2-0.1,0.4-0.2,0.6
		c-0.1,0.2-0.2,0.3-0.3,0.3C-275.6,18.5-275.8,18.6-275.9,18.6z"/>
	<path class="st1" d="M-273.2,15.2V13h0.6v5.5h-0.6V16h-0.7v2.4h-0.6V13h0.6v2.2H-273.2z"/>
	<path class="st1" d="M-272,18.5V13h0.6v5.5H-272z"/>
	<path class="st1" d="M-270.8,18.5V13h0.6v4.6h1v0.9H-270.8z"/>
	<path class="st1" d="M-268.9,13h1.1c0.2,0,0.4,0.1,0.5,0.2c0.1,0.1,0.2,0.3,0.3,0.5c0.1,0.2,0.1,0.5,0.1,0.9c0,0.3,0,0.7,0,1.1
		c0,0.1,0,0.3,0,0.5c0,0.2,0,0.4,0,0.6c0,0.2,0,0.4-0.1,0.6c0,0.2-0.1,0.4-0.2,0.5c-0.1,0.2-0.2,0.3-0.3,0.4
		c-0.1,0.1-0.3,0.1-0.5,0.1h-1V13z M-268.3,17.6h0.3c0.1,0,0.2,0,0.2-0.1c0.1-0.1,0.1-0.2,0.1-0.3c0-0.2,0.1-0.3,0.1-0.6
		c0-0.2,0-0.5,0-0.9c0-0.3,0-0.5,0-0.7c0-0.2,0-0.4,0-0.6c0-0.2-0.1-0.3-0.1-0.4c-0.1-0.1-0.1-0.2-0.3-0.2h-0.3V17.6z"/>
	<path class="st1" d="M-264.9,15.2V13h0.6v5.5h-0.6V16h-0.7v2.4h-0.6V13h0.6v2.2H-264.9z"/>
	<path class="st1" d="M-262.7,18.6c-0.3,0-0.5-0.1-0.6-0.2c-0.1-0.2-0.2-0.4-0.3-0.6c-0.1-0.3-0.1-0.6-0.1-0.9c0-0.3,0-0.7,0-1
		c0-0.4,0-0.7,0-1.1c0-0.3,0-0.6,0.1-0.9c0.1-0.3,0.2-0.5,0.3-0.6c0.1-0.2,0.3-0.2,0.6-0.2c0.3,0,0.5,0.1,0.6,0.2
		c0.1,0.2,0.2,0.4,0.3,0.6c0.1,0.3,0.1,0.6,0.1,0.9c0,0.3,0,0.7,0,1.1c0,0.4,0,0.7,0,1c0,0.3,0,0.6-0.1,0.9
		c-0.1,0.3-0.2,0.5-0.3,0.6C-262.3,18.5-262.5,18.6-262.7,18.6z M-262.7,17.7c0.1,0,0.2,0,0.2-0.1c0.1-0.1,0.1-0.2,0.1-0.4
		c0-0.2,0-0.4,0.1-0.6c0-0.3,0-0.6,0-0.9c0-0.3,0-0.7,0-0.9c0-0.3,0-0.5-0.1-0.6c0-0.2-0.1-0.3-0.1-0.4c-0.1-0.1-0.1-0.1-0.2-0.1
		c-0.1,0-0.2,0-0.2,0.1c-0.1,0.1-0.1,0.2-0.1,0.4c0,0.2,0,0.4-0.1,0.6c0,0.3,0,0.6,0,0.9c0,0.3,0,0.7,0,0.9c0,0.3,0,0.5,0.1,0.6
		c0,0.2,0.1,0.3,0.1,0.4C-262.9,17.7-262.8,17.7-262.7,17.7z"/>
	<path class="st1" d="M-260.1,18.6c-0.3,0-0.5-0.1-0.6-0.2c-0.1-0.2-0.2-0.4-0.3-0.6c-0.1-0.3-0.1-0.6-0.1-0.9c0-0.3,0-0.7,0-1
		c0-0.4,0-0.7,0-1.1c0-0.3,0-0.6,0.1-0.9c0.1-0.3,0.2-0.5,0.3-0.6c0.1-0.2,0.3-0.2,0.6-0.2c0.3,0,0.5,0.1,0.6,0.2
		c0.1,0.2,0.2,0.4,0.3,0.6c0.1,0.3,0.1,0.6,0.1,0.9c0,0.3,0,0.7,0,1.1c0,0.4,0,0.7,0,1c0,0.3-0.1,0.6-0.1,0.9
		c-0.1,0.3-0.2,0.5-0.3,0.6C-259.7,18.5-259.9,18.6-260.1,18.6z M-260.1,17.7c0.1,0,0.2,0,0.2-0.1s0.1-0.2,0.1-0.4
		c0-0.2,0-0.4,0.1-0.6c0-0.3,0-0.6,0-0.9c0-0.3,0-0.7,0-0.9c0-0.3,0-0.5-0.1-0.6c0-0.2-0.1-0.3-0.1-0.4s-0.1-0.1-0.2-0.1
		c-0.1,0-0.2,0-0.2,0.1c-0.1,0.1-0.1,0.2-0.1,0.4c0,0.2,0,0.4-0.1,0.6c0,0.3,0,0.6,0,0.9c0,0.3,0,0.7,0,0.9c0,0.3,0,0.5,0.1,0.6
		c0,0.2,0.1,0.3,0.1,0.4C-260.3,17.7-260.2,17.7-260.1,17.7z"/>
	<path class="st1" d="M-258.5,13h1.1c0.2,0,0.4,0.1,0.5,0.2c0.1,0.1,0.2,0.3,0.3,0.5c0.1,0.2,0.1,0.5,0.1,0.9c0,0.3,0,0.7,0,1.1
		c0,0.1,0,0.3,0,0.5c0,0.2,0,0.4,0,0.6c0,0.2,0,0.4-0.1,0.6c0,0.2-0.1,0.4-0.2,0.5c-0.1,0.2-0.2,0.3-0.3,0.4
		c-0.1,0.1-0.3,0.1-0.5,0.1h-1V13z M-257.9,17.6h0.3c0.1,0,0.2,0,0.2-0.1c0.1-0.1,0.1-0.2,0.1-0.3c0-0.2,0.1-0.3,0.1-0.6
		c0-0.2,0-0.5,0-0.9c0-0.3,0-0.5,0-0.7c0-0.2,0-0.4-0.1-0.6c0-0.2-0.1-0.3-0.1-0.4c-0.1-0.1-0.1-0.2-0.3-0.2h-0.3V17.6z"/>
</g>
<g id="_x36_ypxST_1_" class="st2">
	
		<image style="display:inline;overflow:visible;" width="38" height="53" id="_x36_ypxST" xlink:href="3B36037A6F9347BB.jpg"  transform="matrix(10.3616 0 0 10.3616 45.9337 -78.4796)">
	</image>
</g>
</svg>
