<?xml version="1.0" encoding="utf-8"?>
<!-- Generator: Adobe Illustrator 21.1.0, SVG Export Plug-In . SVG Version: 6.00 Build 0)  -->
<svg version="1.1" xmlns="http://www.w3.org/2000/svg" xmlns:xlink="http://www.w3.org/1999/xlink" x="0px" y="0px"
	 viewBox="0 0 55.7 68" style="enable-background:new 0 0 55.7 68;" xml:space="preserve">
<style type="text/css">
	.st0{fill:#FFFFFF;}
	.st1{fill:#231F20;}
	.st2{fill-rule:evenodd;clip-rule:evenodd;fill:#FFFFFF;}
</style>
<g id="Layer_2">
</g>
<g id="Layer_1">
	<g>
		<g id="PEGI_repeat_3_">
			<defs>
				<rect id="SVGID_1_" width="55.7" height="55.7"/>
			</defs>
			<use xlink:href="#SVGID_1_"  style="overflow:visible;fill:#F89F1B;"/>
			<clipPath id="SVGID_2_">
				<use xlink:href="#SVGID_1_"  style="overflow:visible;"/>
			</clipPath>
		</g>
		<g>
			<path class="st0" d="M19.6,47.8h-8.7V17.6H5.2v-5.1c3.9,0.1,6.5-1.6,7.9-5.4h6.5V47.8z"/>
			<path class="st0" d="M36.7,24.7c1.7-1.6,2.9-2.7,5.7-2.7c5.2,0,7.9,4.4,7.9,12.6c0,7.7-2,13.8-11.2,13.8c-6.5,0-9.8-3.3-10.9-9.5
				c-0.5-2.7-0.6-6.1-0.6-10.6c0.1-5.6,0.1-8.9,0.6-11.6c1.2-6.2,4.5-9.5,10.9-9.5c5.9,0,10.6,3.6,10.6,9.8v2.1h-8.1V18
				c0-2.8-1.1-3.5-2.5-3.5c-1.7,0.2-2.4,1.8-2.5,4V24.7z M39.2,30.1c-1.7,0-2.5,1.7-2.5,5.4c0,3.7,0.8,5.4,2.5,5.4
				c1.8,0,2.6-1.7,2.6-5.4C41.8,31.8,41,30.1,39.2,30.1z"/>
		</g>
		<g id="border_1_">
			<path class="st1" d="M0,68h55.7V0H0 M54.6,54.6H1.1V1.1h53.5V54.6z"/>
		</g>
		<path id="TM_1_" class="st1" d="M49.9,2.2v0.4H49v2.8h-0.5V2.6h-0.9V2.2H49.9z M53.5,5.4H53V2.9h0l-0.9,2.5h-0.4l-0.8-2.5h0v2.5
			h-0.5V2.2h0.8l0.8,2.4h0l0.8-2.4h0.8V5.4z"/>
		<g>
			<polygon class="st0" points="3.5,63.8 4.5,63.8 5.4,59.6 5.4,59.6 6.3,63.8 7.2,63.8 8.4,58.6 7.5,58.6 6.7,62.9 6.7,62.9 
				5.9,58.6 4.9,58.6 4,62.9 4,62.9 3.2,58.6 2.3,58.6 3.5,63.8 			"/>
			<polygon class="st0" points="9.8,63.8 10.7,63.8 11.6,59.6 11.6,59.6 12.5,63.8 13.4,63.8 14.7,58.6 13.8,58.6 13,62.9 13,62.9 
				12.1,58.6 11.2,58.6 10.3,62.9 10.3,62.9 9.4,58.6 8.6,58.6 9.8,63.8 			"/>
			<polygon class="st0" points="16.1,63.8 17,63.8 17.9,59.6 17.9,59.6 18.8,63.8 19.7,63.8 20.9,58.6 20.1,58.6 19.3,62.9 
				19.2,62.9 18.4,58.6 17.4,58.6 16.5,62.9 16.5,62.9 15.7,58.6 14.8,58.6 16.1,63.8 			"/>
			<polygon class="st0" points="21.4,63.8 22.3,63.8 22.3,62.8 21.4,62.8 21.4,63.8 			"/>
			<path class="st2" d="M24.3,61.2c0-1.2,0.1-2,1-2c0.8,0,0.9,0.8,0.9,1.9c0,1.3-0.2,2.1-0.9,2.1C24.4,63.3,24.3,62.2,24.3,61.2
				L24.3,61.2z M23.5,65.5h0.8v-2.3h0c0.2,0.4,0.6,0.7,1.1,0.7c1.3,0,1.7-1.6,1.7-2.8c0-1.5-0.5-2.6-1.7-2.6c-0.6,0-1,0.4-1.1,0.8h0
				v-0.6h-0.8V65.5L23.5,65.5z"/>
			<path class="st2" d="M28.7,60.7v-0.2c0-0.3,0.1-1.4,0.9-1.4c0.7,0,0.9,0.7,0.9,1.3v0.3H28.7L28.7,60.7z M31.4,61.3V61
				c0-1.1-0.1-2.5-1.7-2.5c-1.6,0-1.8,1.5-1.8,2.8c0,1.8,0.5,2.7,1.8,2.7c1.4,0,1.7-1.3,1.7-1.8h-0.8c0,0.4-0.1,1.2-0.9,1.2
				c-1,0-1-1.2-1-2H31.4L31.4,61.3z"/>
			<path class="st2" d="M33.9,59.2c0.9,0,1,1,1,2c0,1.1-0.2,1.9-1.1,1.9c-0.8,0-0.9-1.1-0.9-1.9C32.9,60,33.1,59.2,33.9,59.2
				L33.9,59.2z M35.7,58.6h-0.8v0.7h0c-0.1-0.4-0.6-0.8-1.1-0.8c-1.3,0-1.7,1.3-1.7,2.7c0,0.7,0.1,2.6,1.6,2.6c0.5,0,1-0.3,1.2-0.7
				h0v0.7c0,0.4,0,1.2-1,1.2c-0.4,0-0.8-0.2-0.8-0.7h-0.8c0.1,1.3,1.4,1.3,1.7,1.3c1,0,1.8-0.6,1.8-2.1V58.6L35.7,58.6z"/>
			<path class="st2" d="M36.8,63.8h0.8v-5.2h-0.8V63.8L36.8,63.8z M36.8,57.9h0.8v-0.9h-0.8V57.9L36.8,57.9z"/>
			<polygon class="st0" points="38.9,63.8 39.8,63.8 39.8,62.8 38.9,62.8 38.9,63.8 			"/>
			<path class="st2" d="M41.1,63.8h0.8v-5.2h-0.8V63.8L41.1,63.8z M41.1,57.9h0.8v-0.9h-0.8V57.9L41.1,57.9z"/>
			<path class="st0" d="M43,63.8h0.8v-3.6c0-0.8,0.6-1,1-1c0.7,0,0.8,0.6,0.8,1v3.6h0.8v-3.7c0-0.6,0-1.6-1.4-1.6
				c-0.5,0-1,0.3-1.3,0.7h0v-0.6H43V63.8L43,63.8z"/>
			<path class="st0" d="M47.7,63.8h0.8v-4.5h0.9v-0.6h-0.9V58c0-0.4,0.2-0.5,0.5-0.5h0.4v-0.7h-0.6c-0.8,0-1.1,0.4-1.1,1.2v0.6h-0.8
				v0.6h0.8V63.8L47.7,63.8z"/>
			<path class="st2" d="M49.7,61.2c0,1.5,0.4,2.7,1.9,2.7c1.5,0,1.9-1.3,1.9-2.7c0-1.5-0.4-2.7-1.9-2.7
				C50.1,58.5,49.7,59.8,49.7,61.2L49.7,61.2z M51.5,63.3c-0.8,0-1-1-1-2.1c0-1.1,0.2-2.1,1-2.1c0.9,0,1,1,1,2.1
				C52.6,62.4,52.4,63.3,51.5,63.3L51.5,63.3z"/>
		</g>
	</g>
</g>
</svg>
