<?xml version="1.0" encoding="utf-8"?>
<!-- Generator: Adobe Illustrator 21.1.0, SVG Export Plug-In . SVG Version: 6.00 Build 0)  -->
<svg version="1.1" xmlns="http://www.w3.org/2000/svg" xmlns:xlink="http://www.w3.org/1999/xlink" x="0px" y="0px"
	 viewBox="0 0 55.7 68" style="enable-background:new 0 0 55.7 68;" xml:space="preserve">
<style type="text/css">
	.st0{display:none;}
	.st1{display:inline;fill:#FF0000;}
	.st2{fill:#FFFFFF;}
	.st3{fill:#231F20;}
	.st4{fill-rule:evenodd;clip-rule:evenodd;fill:#FFFFFF;}
</style>
<g id="Layer_2" class="st0">
	<rect x="6.7" y="1.1" class="st1" width="54.8" height="60.9"/>
</g>
<g id="Layer_1">
	<g>
		<g id="PEGI_repeat_2_">
			<defs>
				<rect id="SVGID_1_" x="0" width="55.7" height="55.7"/>
			</defs>
			<use xlink:href="#SVGID_1_"  style="overflow:visible;fill:#98C93C;"/>
			<clipPath id="SVGID_2_">
				<use xlink:href="#SVGID_1_"  style="overflow:visible;"/>
			</clipPath>
		</g>
		<g>
			<path class="st2" d="M24.1,23.4H26c3,0,3.6-1.6,3.6-4.3c0-3.4-0.7-4.5-2.3-4.5c-1.4,0-2.2,1.2-2.2,3.9V20h-8.2
				c0-8.3,2.6-12.9,11-12.9c6.4,0,10.4,3.7,10.4,11.3c0,5-1.6,7.1-4,8.1c2.9,1.6,4.6,3.3,4.6,9.3c0,7.9-3,12.7-11.4,12.7
				c-9.9,0-11.1-6.4-11.1-14.9h8.6v3.7c0,2.2,0.9,3.2,2.2,3.2c1.7,0,2.7-1.2,2.7-4.9c0-4.1-0.9-5.6-4-5.6h-1.7V23.4z"/>
		</g>
		<g id="border_1_">
			<path class="st3" d="M0,67.9h55.7V0H0 M54.6,54.6H1.2V1.1h53.5V54.6z"/>
		</g>
		<path id="TM_1_" class="st3" d="M49.9,2.2v0.4H49v2.8h-0.5V2.6h-0.9V2.2H49.9z M53.5,5.4H53V2.9h0l-0.9,2.5h-0.4l-0.8-2.5h0v2.5
			h-0.5V2.2h0.8l0.8,2.4h0l0.8-2.4h0.8V5.4z"/>
		<g>
			<polygon class="st2" points="3.6,63.8 4.5,63.8 5.4,59.5 5.4,59.5 6.3,63.8 7.2,63.8 8.4,58.6 7.6,58.6 6.8,62.8 6.8,62.8 
				5.9,58.6 4.9,58.6 4.1,62.8 4,62.8 3.2,58.6 2.4,58.6 3.6,63.8 			"/>
			<polygon class="st2" points="9.8,63.8 10.8,63.8 11.6,59.5 11.7,59.5 12.6,63.8 13.5,63.8 14.7,58.6 13.8,58.6 13,62.8 13,62.8 
				12.2,58.6 11.2,58.6 10.3,62.8 10.3,62.8 9.5,58.6 8.6,58.6 9.8,63.8 			"/>
			<polygon class="st2" points="16.1,63.8 17,63.8 17.9,59.5 17.9,59.5 18.8,63.8 19.7,63.8 20.9,58.6 20.1,58.6 19.3,62.8 
				19.3,62.8 18.4,58.6 17.5,58.6 16.6,62.8 16.6,62.8 15.7,58.6 14.9,58.6 16.1,63.8 			"/>
			<polygon class="st2" points="21.4,63.8 22.3,63.8 22.3,62.7 21.4,62.7 21.4,63.8 			"/>
			<path class="st4" d="M24.3,61.2c0-1.2,0.1-2,1-2c0.8,0,0.9,0.8,0.9,1.9c0,1.3-0.2,2.1-0.9,2.1C24.5,63.2,24.3,62.2,24.3,61.2
				L24.3,61.2z M23.5,65.5h0.8v-2.3h0c0.2,0.4,0.6,0.7,1.1,0.7c1.3,0,1.7-1.6,1.7-2.8c0-1.5-0.5-2.6-1.7-2.6c-0.6,0-1,0.4-1.1,0.8h0
				v-0.6h-0.8V65.5L23.5,65.5z"/>
			<path class="st4" d="M28.7,60.6v-0.2c0-0.3,0.1-1.3,0.9-1.3c0.7,0,0.9,0.7,0.9,1.3v0.3H28.7L28.7,60.6z M31.4,61.3V61
				c0-1.1-0.1-2.5-1.7-2.5c-1.6,0-1.8,1.5-1.8,2.8c0,1.8,0.5,2.7,1.8,2.7c1.4,0,1.7-1.3,1.7-1.8h-0.8c0,0.4-0.1,1.2-0.9,1.2
				c-1,0-1-1.2-1-2H31.4L31.4,61.3z"/>
			<path class="st4" d="M33.9,59.2c0.9,0,1,1,1,2c0,1.1-0.2,1.9-1.1,1.9c-0.8,0-0.9-1.1-0.9-1.9C32.9,59.9,33.1,59.2,33.9,59.2
				L33.9,59.2z M35.7,58.6h-0.8v0.7h0c-0.1-0.4-0.6-0.8-1.1-0.8c-1.3,0-1.7,1.3-1.7,2.7c0,0.7,0.1,2.6,1.6,2.6c0.5,0,1-0.3,1.2-0.7
				h0v0.7c0,0.4,0,1.2-1,1.2c-0.4,0-0.8-0.2-0.8-0.7h-0.8c0.1,1.3,1.4,1.3,1.7,1.3c1,0,1.8-0.6,1.8-2.1V58.6L35.7,58.6z"/>
			<path class="st4" d="M36.8,63.8h0.8v-5.2h-0.8V63.8L36.8,63.8z M36.8,57.8h0.8v-0.9h-0.8V57.8L36.8,57.8z"/>
			<polygon class="st2" points="38.9,63.8 39.8,63.8 39.8,62.7 38.9,62.7 38.9,63.8 			"/>
			<path class="st4" d="M41.1,63.8h0.8v-5.2h-0.8V63.8L41.1,63.8z M41.1,57.8h0.8v-0.9h-0.8V57.8L41.1,57.8z"/>
			<path class="st2" d="M43,63.8h0.8v-3.6c0-0.8,0.6-1,1-1c0.7,0,0.8,0.6,0.8,1v3.6h0.8v-3.7c0-0.6,0-1.6-1.4-1.6
				c-0.5,0-1,0.3-1.3,0.7h0v-0.6H43V63.8L43,63.8z"/>
			<path class="st2" d="M47.7,63.8h0.8v-4.5h0.9v-0.6h-0.9V58c0-0.4,0.2-0.5,0.5-0.5h0.4v-0.7h-0.6c-0.8,0-1.1,0.4-1.1,1.2v0.6h-0.8
				v0.6h0.8V63.8L47.7,63.8z"/>
			<path class="st4" d="M49.7,61.2c0,1.5,0.4,2.7,1.9,2.7c1.5,0,1.9-1.3,1.9-2.7c0-1.5-0.4-2.7-1.9-2.7
				C50.1,58.5,49.7,59.7,49.7,61.2L49.7,61.2z M51.5,63.3c-0.8,0-1-1-1-2.1c0-1.1,0.2-2.1,1-2.1c0.9,0,1,1,1,2.1
				C52.6,62.3,52.4,63.3,51.5,63.3L51.5,63.3z"/>
		</g>
	</g>
</g>
</svg>
